<svg width="16" height="20" viewBox="0 0 16 20" fill="none" 
  xmlns="http://www.w3.org/2000/svg">
  <path d="M15.1856 15.1209C14.9163 15.7614 14.5975 16.351 14.2282 16.8931C13.7248 17.632 13.3125 18.1436 12.9949 18.4276C12.5024 18.8938 11.9748 19.1326 11.4098 19.1462C11.0042 19.1462 10.515 19.0274 9.94563 18.7863C9.37436 18.5464 8.84937 18.4276 8.36934 18.4276C7.8659 18.4276 7.32596 18.5464 6.74843 18.7863C6.17001 19.0274 5.70405 19.153 5.34779 19.1654C4.80599 19.1892 4.26594 18.9436 3.72688 18.4276C3.38282 18.1187 2.95248 17.589 2.43694 16.8388C1.88381 16.0375 1.42906 15.1085 1.07281 14.0492C0.691265 12.9051 0.5 11.7972 0.5 10.7247C0.5 9.49603 0.757878 8.43635 1.2744 7.54834C1.68035 6.83506 2.22039 6.27241 2.89631 5.85935C3.57222 5.4463 4.30254 5.23581 5.08904 5.22234C5.51938 5.22234 6.08372 5.35939 6.78503 5.62872C7.48435 5.89896 7.93339 6.036 8.13026 6.036C8.27744 6.036 8.77627 5.87576 9.6219 5.55629C10.4216 5.26003 11.0965 5.13736 11.6494 5.18568C13.1477 5.31016 14.2733 5.9182 15.0218 7.01364C13.6819 7.84948 13.0191 9.02017 13.0322 10.522C13.0443 11.6918 13.4565 12.6652 14.2667 13.4381C14.6338 13.7969 15.0438 14.0741 15.5 14.271C15.4011 14.5664 15.2966 14.8493 15.1856 15.1209ZM11.7495 1.20045C11.7495 2.11733 11.4241 2.97341 10.7755 3.76579C9.99289 4.70778 9.04624 5.25211 8.01968 5.16621C8.0066 5.05622 7.99901 4.94045 7.99901 4.8188C7.99901 3.9386 8.37121 2.99661 9.03217 2.22641C9.36216 1.83644 9.78184 1.51219 10.2908 1.25352C10.7986 0.998721 11.279 0.85781 11.7308 0.833679C11.744 0.956251 11.7495 1.07883 11.7495 1.20044V1.20045Z" fill="#140CA3"/>
</svg>
