<svg width="16" height="18" viewBox="0 0 16 18" fill="none" 
  xmlns="http://www.w3.org/2000/svg">
  <path opacity="0.5" d="M11.5621 11.6057C13.4583 10.5126 14.9066 9.67756 15.0383 9.60153C15.4313 9.37498 15.843 8.79684 15.0383 8.33473C14.7797 8.18592 13.3704 7.37653 11.5598 6.33615L9.06964 8.9791L11.5621 11.6057Z" fill="#140CA3"/>
  <path opacity="0.75" d="M9.06951 8.97928L1.10484 17.4322C1.28471 17.4562 1.50104 17.406 1.74988 17.2626C2.26503 16.9656 7.79743 13.776 11.5621 11.6056L9.06951 8.97928Z" fill="#140CA3"/>
  <path opacity="0.75" d="M9.06953 8.9792L11.5597 6.33625C11.5597 6.33625 2.304 1.01755 1.74989 0.699153C1.53691 0.576733 1.30469 0.53401 1.09915 0.58222L9.06953 8.9792Z" fill="#140CA3"/>
  <path d="M9.06951 8.97936L1.09901 0.58252C0.769797 0.659865 0.5 0.959972 0.5 1.56319C0.5 2.54308 0.5 15.6021 0.5 16.4248C0.5 16.9929 0.712241 17.3924 1.10472 17.4323L9.06951 8.97936Z" fill="#140CA3"/>
</svg>
