<svg width="60" height="60" viewBox="0 0 60 60" fill="none" 
  xmlns="http://www.w3.org/2000/svg">
  <path d="M58.1249 30L51.0749 49.39C50.9436 49.7495 50.7057 50.0604 50.393 50.2811C50.0803 50.5018 49.7077 50.6218 49.3249 50.625H35.8949C35.5277 50.6249 35.1685 50.5171 34.8619 50.3149C34.5553 50.1127 34.3147 49.825 34.1699 49.4875L30.1524 38.2375C30.0298 37.9525 29.9799 37.6414 30.0073 37.3323C30.0347 37.0233 30.1384 36.7258 30.3092 36.4668C30.48 36.2077 30.7125 35.9952 30.9858 35.8482C31.2591 35.7013 31.5646 35.6246 31.8749 35.625H56.0799" stroke="#140CA3" stroke-width="2.5" stroke-linecap="round" stroke-linejoin="round"/>
  <path d="M38.4375 56.25C38.6229 56.25 38.8042 56.305 38.9583 56.408C39.1125 56.511 39.2327 56.6574 39.3036 56.8287C39.3746 57 39.3932 57.1885 39.357 57.3704C39.3208 57.5523 39.2315 57.7193 39.1004 57.8504C38.9693 57.9815 38.8023 58.0708 38.6204 58.107C38.4385 58.1432 38.25 58.1246 38.0787 58.0536C37.9074 57.9827 37.761 57.8625 37.658 57.7084C37.555 57.5542 37.5 57.3729 37.5 57.1875C37.4997 57.0643 37.5237 56.9422 37.5707 56.8283C37.6177 56.7145 37.6867 56.611 37.7739 56.5239C37.861 56.4367 37.9645 56.3677 38.0783 56.3207C38.1922 56.2737 38.3143 56.2497 38.4375 56.25Z" fill="black" stroke="#140CA3" stroke-width="2.5" stroke-linecap="round" stroke-linejoin="round"/>
  <path d="M47.8125 56.25C47.9979 56.25 48.1792 56.305 48.3334 56.408C48.4875 56.511 48.6077 56.6574 48.6786 56.8287C48.7496 57 48.7682 57.1885 48.732 57.3704C48.6958 57.5523 48.6065 57.7193 48.4754 57.8504C48.3443 57.9815 48.1773 58.0708 47.9954 58.107C47.8135 58.1432 47.625 58.1246 47.4537 58.0536C47.2824 57.9827 47.136 57.8625 47.033 57.7084C46.93 57.5542 46.875 57.3729 46.875 57.1875C46.8747 57.0643 46.8987 56.9422 46.9457 56.8283C46.9927 56.7145 47.0617 56.611 47.1489 56.5239C47.236 56.4367 47.3395 56.3677 47.4533 56.3207C47.5672 56.2737 47.6893 56.2497 47.8125 56.25Z" fill="black" stroke="#140CA3" stroke-width="2.5" stroke-linecap="round" stroke-linejoin="round"/>
  <path d="M15 16.875C19.1421 16.875 22.5 13.5171 22.5 9.375C22.5 5.23286 19.1421 1.875 15 1.875C10.8579 1.875 7.5 5.23286 7.5 9.375C7.5 13.5171 10.8579 16.875 15 16.875Z" stroke="#140CA3" stroke-width="2.5" stroke-linecap="round" stroke-linejoin="round"/>
  <path d="M26.3875 27.22C24.9477 24.7118 22.7198 22.7493 20.05 21.6372C17.3802 20.5252 14.4179 20.326 11.6233 21.0704C8.82859 21.8149 6.358 23.4615 4.59523 25.7543C2.83247 28.0471 1.87622 30.8579 1.875 33.75V39.375H7.5L9.375 58.125H20.625L21.435 50.0425" stroke="#140CA3" stroke-width="2.5" stroke-linecap="round" stroke-linejoin="round"/>
  <path d="M41.25 15C44.8744 15 47.8125 12.0619 47.8125 8.4375C47.8125 4.81313 44.8744 1.875 41.25 1.875C37.6256 1.875 34.6875 4.81313 34.6875 8.4375C34.6875 12.0619 37.6256 15 41.25 15Z" stroke="#140CA3" stroke-width="2.5" stroke-linecap="round" stroke-linejoin="round"/>
  <path d="M51 22.4998C50.1049 20.9506 48.8533 19.6371 47.3489 18.6685C45.8445 17.6999 44.1308 17.1041 42.35 16.9306C40.5692 16.757 38.7727 17.0107 37.1096 17.6706C35.4465 18.3305 33.9648 19.3775 32.7875 20.7248" stroke="#140CA3" stroke-width="2.5" stroke-linecap="round" stroke-linejoin="round"/>
</svg>
