<svg width="60" height="60" viewBox="0 0 60 60" fill="none" 
  xmlns="http://www.w3.org/2000/svg">
  <path d="M1.87256 58.125H56.2476" stroke="#140CA3" stroke-width="2.5" stroke-linecap="round" stroke-linejoin="round"/>
  <path d="M6.87256 46.875H13.7501C14.0816 46.875 14.3995 47.0067 14.6339 47.2411C14.8684 47.4755 15.0001 47.7935 15.0001 48.125V58.125H5.62256V48.125C5.62256 47.7935 5.75425 47.4755 5.98867 47.2411C6.2231 47.0067 6.54104 46.875 6.87256 46.875Z" stroke="#140CA3" stroke-width="2.5" stroke-linecap="round" stroke-linejoin="round"/>
  <path d="M25.6226 24.375H32.5001C32.8316 24.375 33.1495 24.5067 33.3839 24.7411C33.6184 24.9755 33.7501 25.2935 33.7501 25.625V58.125H24.3726V25.625C24.3726 25.2935 24.5043 24.9755 24.7387 24.7411C24.9731 24.5067 25.291 24.375 25.6226 24.375Z" stroke="#140CA3" stroke-width="2.5" stroke-linecap="round" stroke-linejoin="round"/>
  <path d="M44.3725 35.625H51.25C51.5815 35.625 51.8995 35.7567 52.1339 35.9911C52.3683 36.2255 52.5 36.5435 52.5 36.875V58.125H43.125V36.875C43.125 36.5439 43.2564 36.2263 43.4902 35.992C43.7241 35.7577 44.0414 35.6257 44.3725 35.625Z" stroke="#140CA3" stroke-width="2.5" stroke-linecap="round" stroke-linejoin="round"/>
  <path d="M17.2074 12.8027L7.16492 22.8352" stroke="#140CA3" stroke-width="2.5" stroke-linecap="round" stroke-linejoin="round"/>
  <path d="M35.7774 15.8125L24.0924 12.6875" stroke="#140CA3" stroke-width="2.5" stroke-linecap="round" stroke-linejoin="round"/>
  <path d="M50.9801 7.22237L42.0276 14.2224" stroke="#140CA3" stroke-width="2.5" stroke-linecap="round" stroke-linejoin="round"/>
  <path d="M20.6226 15.0024C22.6936 15.0024 24.3726 13.3235 24.3726 11.2524C24.3726 9.18137 22.6936 7.50244 20.6226 7.50244C18.5515 7.50244 16.8726 9.18137 16.8726 11.2524C16.8726 13.3235 18.5515 15.0024 20.6226 15.0024Z" stroke="#140CA3" stroke-width="2.5" stroke-linecap="round" stroke-linejoin="round"/>
  <path d="M54.375 9.375C56.4461 9.375 58.125 7.69607 58.125 5.625C58.125 3.55393 56.4461 1.875 54.375 1.875C52.3039 1.875 50.625 3.55393 50.625 5.625C50.625 7.69607 52.3039 9.375 54.375 9.375Z" stroke="#140CA3" stroke-width="2.5" stroke-linecap="round" stroke-linejoin="round"/>
  <path d="M39.375 20.625C41.4461 20.625 43.125 18.9461 43.125 16.875C43.125 14.8039 41.4461 13.125 39.375 13.125C37.3039 13.125 35.625 14.8039 35.625 16.875C35.625 18.9461 37.3039 20.625 39.375 20.625Z" stroke="#140CA3" stroke-width="2.5" stroke-linecap="round" stroke-linejoin="round"/>
  <path d="M5.62256 30.0024C7.69363 30.0024 9.37256 28.3235 9.37256 26.2524C9.37256 24.1814 7.69363 22.5024 5.62256 22.5024C3.55149 22.5024 1.87256 24.1814 1.87256 26.2524C1.87256 28.3235 3.55149 30.0024 5.62256 30.0024Z" stroke="#140CA3" stroke-width="2.5" stroke-linecap="round" stroke-linejoin="round"/>
</svg>
