<svg width="60" height="60" viewBox="0 0 60 60" fill="none" xmlns="http://www.w3.org/2000/svg">
<path d="M43.25 58.25C51.5343 58.25 58.25 51.5343 58.25 43.25C58.25 34.9657 51.5343 28.25 43.25 28.25C34.9657 28.25 28.25 34.9657 28.25 43.25C28.25 51.5343 34.9657 58.25 43.25 58.25Z" stroke="#140CA3" stroke-width="2.5" stroke-linecap="round" stroke-linejoin="round"/>
<path d="M49.9351 38.8902L42.6726 48.5727C42.5113 48.7872 42.3058 48.9647 42.0701 49.0931C41.8344 49.2215 41.5739 49.2979 41.3062 49.3171C41.0385 49.3363 40.7697 49.2978 40.5181 49.2043C40.2665 49.1109 40.0379 48.9645 39.8476 48.7752L36.0976 45.0252" stroke="#140CA3" stroke-width="2.5" stroke-linecap="round" stroke-linejoin="round"/>
<path d="M50.75 20.75V5.75C50.75 4.75544 50.3549 3.80161 49.6516 3.09835C48.9484 2.39509 47.9946 2 47 2H5.75C4.75544 2 3.80161 2.39509 3.09835 3.09835C2.39509 3.80161 2 4.75544 2 5.75V35.75C2 36.7446 2.39509 37.6984 3.09835 38.4017C3.80161 39.1049 4.75544 39.5 5.75 39.5H20.75" stroke="#140CA3" stroke-width="2.5" stroke-linecap="round" stroke-linejoin="round"/>
<path d="M2 12L49.5 12" stroke="#140CA3" stroke-width="2.5"/>
<path d="M9.5 22.625H24.5" stroke="#140CA3" stroke-width="2.5" stroke-linecap="round" stroke-linejoin="round"/>
<path d="M9.5 30.125H17" stroke="#140CA3" stroke-width="2.5" stroke-linecap="round" stroke-linejoin="round"/>
</svg>
