<svg width="59" height="60" viewBox="0 0 59 60" fill="none" 
  xmlns="http://www.w3.org/2000/svg">
  <path d="M8.0625 48.75C11.6869 48.75 14.625 45.8119 14.625 42.1875C14.625 38.5631 11.6869 35.625 8.0625 35.625C4.43813 35.625 1.5 38.5631 1.5 42.1875C1.5 45.8119 4.43813 48.75 8.0625 48.75Z" stroke="#140CA3" stroke-width="2.5" stroke-linecap="round" stroke-linejoin="round"/>
  <path d="M51.1875 48.75C54.8119 48.75 57.75 45.8119 57.75 42.1875C57.75 38.5631 54.8119 35.625 51.1875 35.625C47.5631 35.625 44.625 38.5631 44.625 42.1875C44.625 45.8119 47.5631 48.75 51.1875 48.75Z" stroke="#140CA3" stroke-width="2.5" stroke-linecap="round" stroke-linejoin="round"/>
  <path d="M29.625 48.75C33.2494 48.75 36.1875 45.8119 36.1875 42.1875C36.1875 38.5631 33.2494 35.625 29.625 35.625C26.0006 35.625 23.0625 38.5631 23.0625 42.1875C23.0625 45.8119 26.0006 48.75 29.625 48.75Z" stroke="#140CA3" stroke-width="2.5" stroke-linecap="round" stroke-linejoin="round"/>
  <path d="M18.845 58.1249C18.2381 56.4772 17.2607 54.991 15.9883 53.7809C14.7159 52.5708 13.1824 51.6692 11.5063 51.1457C9.83025 50.6221 8.05628 50.4907 6.32134 50.7615C4.58639 51.0323 2.93685 51.6981 1.5 52.7074" stroke="#140CA3" stroke-width="2.5" stroke-linecap="round" stroke-linejoin="round"/>
  <path d="M40.4075 58.125C41.0141 56.4773 41.9912 54.9911 43.2634 53.7809C44.5356 52.5708 46.0688 51.6692 47.7447 51.1457C49.4206 50.6222 51.1944 50.4907 52.9292 50.7615C54.664 51.0323 56.3133 51.6981 57.75 52.7075" stroke="#140CA3" stroke-width="2.5" stroke-linecap="round" stroke-linejoin="round"/>
  <path d="M40.4075 58.1248C39.5911 55.9231 38.1202 54.0242 36.1927 52.6831C34.2651 51.3421 31.9732 50.6232 29.625 50.6232C27.2769 50.6232 24.985 51.3421 23.0574 52.6831C21.1298 54.0242 19.659 55.9231 18.8425 58.1248" stroke="#140CA3" stroke-width="2.5" stroke-linecap="round" stroke-linejoin="round"/>
  <path d="M35.25 28.125C35.25 28.125 37.125 18.75 44.625 16.875" stroke="#140CA3" stroke-width="2.5" stroke-linecap="round" stroke-linejoin="round"/>
  <path d="M50.25 15H57.75" stroke="#140CA3" stroke-width="2.5" stroke-linecap="round" stroke-linejoin="round"/>
  <path d="M54 11.25V18.75" stroke="#140CA3" stroke-width="2.5" stroke-linecap="round" stroke-linejoin="round"/>
  <path d="M24 28.125C24 28.125 22.125 18.75 14.625 16.875" stroke="#140CA3" stroke-width="2.5" stroke-linecap="round" stroke-linejoin="round"/>
  <path d="M9 15H1.5" stroke="#140CA3" stroke-width="2.5" stroke-linecap="round" stroke-linejoin="round"/>
  <path d="M5.25 11.25V18.75" stroke="#140CA3" stroke-width="2.5" stroke-linecap="round" stroke-linejoin="round"/>
  <path d="M25.875 5.625H33.375" stroke="#140CA3" stroke-width="2.5" stroke-linecap="round" stroke-linejoin="round"/>
  <path d="M29.625 1.875V9.375" stroke="#140CA3" stroke-width="2.5" stroke-linecap="round" stroke-linejoin="round"/>
  <path d="M29.625 28.125V16.875" stroke="#140CA3" stroke-width="2.5" stroke-linecap="round" stroke-linejoin="round"/>
</svg>
