<svg width="59" height="60" viewBox="0 0 59 60" fill="none" 
  xmlns="http://www.w3.org/2000/svg">
  <path d="M57.75 24.845C57.7505 32.8212 54.9261 40.5397 49.7776 46.6318C44.6292 52.7239 37.4896 56.7956 29.625 58.125C21.7604 56.7956 14.6208 52.7239 9.47235 46.6318C4.32394 40.5397 1.49952 32.8212 1.5 24.845V5.625C1.5 4.63044 1.89509 3.67661 2.59835 2.97335C3.30161 2.27009 4.25544 1.875 5.25 1.875H54C54.9946 1.875 55.9484 2.27009 56.6516 2.97335C57.3549 3.67661 57.75 4.63044 57.75 5.625V24.845Z" stroke="#140CA3" stroke-width="2.5" stroke-linecap="round" stroke-linejoin="round"/>
  <path d="M1.5 13.125H57.75" stroke="#140CA3" stroke-width="2.5" stroke-linecap="round" stroke-linejoin="round"/>
  <path d="M42.75 24.3725L29.075 38.0475C28.9011 38.2216 28.6945 38.3598 28.4672 38.4541C28.2398 38.5483 27.9961 38.5969 27.75 38.5969C27.5039 38.5969 27.2602 38.5483 27.0328 38.4541C26.8055 38.3598 26.5989 38.2216 26.425 38.0475L22.125 33.75" stroke="#140CA3" stroke-width="2.5" stroke-linecap="round" stroke-linejoin="round"/>
</svg>
