<svg width="60" height="60" viewBox="0 0 60 60" fill="none" 
  xmlns="http://www.w3.org/2000/svg">
  <path d="M31.875 35.625V54.375C31.875 55.3696 31.4799 56.3234 30.7767 57.0266C30.0734 57.7299 29.1196 58.125 28.125 58.125H5.625C4.63044 58.125 3.67661 57.7299 2.97335 57.0266C2.27009 56.3234 1.875 55.3696 1.875 54.375V9.375C1.875 8.38044 2.27009 7.42661 2.97335 6.72335C3.67661 6.02009 4.63044 5.625 5.625 5.625H22.5" stroke="#140CA3" stroke-width="2.5" stroke-linecap="round" stroke-linejoin="round"/>
  <path d="M1.875 46.875H31.875" stroke="#140CA3" stroke-width="2.5" stroke-linecap="round" stroke-linejoin="round"/>
  <path d="M46.8749 9.37502H41.7924C41.0119 9.37253 40.2549 9.6425 39.6521 10.1384C39.0492 10.6342 38.6383 11.3249 38.4902 12.0913C38.3421 12.8577 38.466 13.6518 38.8407 14.3366C39.2153 15.0214 39.8172 15.554 40.5424 15.8425L45.6999 17.9075C46.4226 18.1983 47.0215 18.7314 47.394 19.4155C47.7666 20.0995 47.8894 20.8919 47.7416 21.6567C47.5938 22.4214 47.1845 23.111 46.5839 23.6069C45.9833 24.1029 45.2289 24.3745 44.4499 24.375H39.3749" stroke="#140CA3" stroke-width="2.5" stroke-linecap="round" stroke-linejoin="round"/>
  <path d="M43.125 9.375V7.5" stroke="#140CA3" stroke-width="2.5" stroke-linecap="round" stroke-linejoin="round"/>
  <path d="M43.125 26.25V24.375" stroke="#140CA3" stroke-width="2.5" stroke-linecap="round" stroke-linejoin="round"/>
  <path d="M43.125 31.875C51.4093 31.875 58.125 25.1593 58.125 16.875C58.125 8.59073 51.4093 1.875 43.125 1.875C34.8407 1.875 28.125 8.59073 28.125 16.875C28.125 25.1593 34.8407 31.875 43.125 31.875Z" stroke="#140CA3" stroke-width="2.5" stroke-linecap="round" stroke-linejoin="round"/>
</svg>
